<svg width="803" height="172" viewBox="0 0 803 172" fill="none" xmlns="http://www.w3.org/2000/svg">
<path fill-rule="evenodd" clip-rule="evenodd" d="M120.134 5.35806H83.0306V69.9794H82.6285C77.9499 63.5937 72.5336 59.0206 66.3829 56.2547C60.2322 53.9119 53.3796 52.7434 45.8267 52.7434C31.0531 53.0988 19.7559 59.1352 11.9333 70.8567C3.97833 82.3631 0 95.4666 0 110.17C0 127.359 4.24451 141.777 12.7371 153.427C20.9581 165.288 33.0254 171.396 48.937 171.751C57.6958 171.612 65.4148 169.352 72.0994 164.973C78.7179 160.637 83.2305 155.268 85.6387 148.871H86.1388V169.131H120.136V5.35806H120.134ZM38.1777 111.022C38.1777 103.198 40.1837 96.5845 44.1962 91.179C47.8744 85.7733 53.3589 82.9996 60.6514 82.8561C67.6098 82.9996 73.0601 85.7714 77.0063 91.179C81.0206 96.5828 83.0965 103.729 83.2286 112.619C83.0965 121.012 80.8884 127.84 76.6063 133.104C72.392 138.648 67.0717 141.495 60.6512 141.637C53.6287 141.637 48.2104 138.72 44.3961 132.889C40.2517 127.485 38.1777 120.197 38.1777 111.022Z" fill="#D40032"/>
<path fill-rule="evenodd" clip-rule="evenodd" d="M137.028 164.796C152.609 169.592 168.488 171.991 184.67 171.991C203.307 172.146 219.522 168.309 233.316 160.473C247.335 152.564 254.565 138.136 255.012 117.191C255.012 109.515 253.993 103.078 251.957 97.8823C249.847 92.6105 246.944 88.2276 243.247 84.7359C239.703 81.2479 235.666 78.3015 231.142 75.8967C226.692 73.5693 221.981 71.6692 217.001 70.194C212.445 68.6579 207.881 67.1459 203.311 65.658C198.709 64.2622 194.561 62.9055 190.866 61.5858C187.171 60.192 184.228 58.4471 182.041 56.3527C179.703 54.336 178.534 51.6614 178.534 48.3248C178.838 41.1879 182.398 36.7294 189.211 34.9476C192.315 34.0178 195.495 33.3966 198.755 33.0862C202.01 32.929 204.962 32.8513 207.614 32.8513C220.185 32.8513 232.224 35.3725 243.736 40.4191L246.461 6.15688C235.041 2.20688 221.306 0.155235 205.255 0C197.118 0 189.02 0.698851 180.958 2.09636C172.82 3.72486 165.32 6.4402 158.452 10.2408C151.733 14.0411 146.285 19.2739 142.103 25.9451C137.7 32.6144 135.499 40.953 135.499 50.9567C135.646 65.6133 139.755 76.3548 147.821 83.1832C151.514 86.6729 155.661 89.5806 160.26 91.9078C164.782 94.3126 169.343 96.3293 173.939 97.9559C178.916 99.5107 183.626 101.023 188.077 102.494C192.521 103.893 196.518 105.403 200.061 107.032C203.831 108.583 206.77 110.637 208.878 113.2C210.914 115.757 211.934 119.016 211.934 122.969C211.781 129.485 209.061 133.831 203.773 136.001C198.709 138.251 192.515 139.297 185.183 139.142C166.975 138.831 152.126 135.184 140.644 128.199L137.028 164.796Z" fill="#004494"/>
<path fill-rule="evenodd" clip-rule="evenodd" d="M265.977 169.132H307.668V110.986H324.312C366.502 110.52 387.9 92.6726 388.502 57.4475C388.657 20.8986 364.745 2.70382 316.776 2.85906H265.977V169.132ZM307.666 34.2818H319.199C327.043 34.2818 333.631 35.7956 338.969 38.8217C344.068 42.3175 346.697 48.2568 346.852 56.6438C346.697 65.1046 344.068 71.0848 338.969 74.5806C333.633 78.0745 327.045 79.7436 319.199 79.5864H307.666V34.2818ZM375.047 169.132H417.415L429.786 133.662H488.575L500.178 169.132H545.936L485.621 2.85906H434.491L375.047 169.132ZM481.973 102.216H441.481L462.289 37.1389H462.857L481.973 102.216ZM676.192 130.53C664.349 136.114 651.303 138.983 637.05 139.14C621.484 139.14 608.988 134.445 599.559 125.052C589.84 115.817 584.903 103.012 584.756 86.636C584.903 70.8014 589.4 57.956 598.242 48.0996C606.937 38.09 618.74 33.0065 633.655 32.8513C647.758 32.8513 661.388 36.7507 674.545 44.5456L677.943 8.60627C662.966 3.17929 647.473 0.31047 631.477 0C605.172 0 583.769 7.133 567.255 21.3974C550.524 35.8927 542.013 57.6397 541.718 86.636C542.305 117.643 552.095 139.662 571.09 152.688C579.934 159.357 589.649 164.202 600.243 167.222C610.766 170.401 621.25 171.991 631.696 171.991C642.289 171.836 651.276 171.025 658.655 169.551C665.961 168.317 672.463 166.884 678.162 165.262L676.192 130.53ZM803 137.709H731.833V100.027H796.757V68.6276H731.833V34.2818H800.479V2.85906H690.188V169.132H803L803 137.709Z" fill="#004494"/>
</svg>
